<svg xmlns="http://www.w3.org/2000/svg" width="164" height="112" viewBox="18 44 164 112"><path fill="#FF4081" d="M126 128V44L98 72v56l28 28h28v-28z"/><path opacity=".2" fill="#FFF" d="M126 44v28H98z"/><path opacity=".1" fill="#FFF" d="M98 100V72h28z"/><path opacity=".1" d="M126 128v-28H98z"/><path opacity=".2" d="M126 128H98v-28z"/><path opacity=".5" d="M126 128h28v28z"/><path opacity=".4" d="M126 128v28h28z"/><path opacity=".3" d="M126 156v-28H98z"/><path fill="#949ED5" d="M154 44h-28v28h28v84l28-28V72z"/><path opacity=".4" d="M126 44h28v28z"/><path opacity=".5" d="M126 44v28h28z"/><path opacity=".2" d="M182 100V72h-28z"/><path opacity=".1" d="M182 100h-28V72z"/><path opacity=".1" fill="#FFF" d="M154 128h28v-28z"/><path opacity=".3" d="M154 44v28h28z"/><path opacity=".2" fill="#FFF" d="M154 156v-28h28z"/><path fill="#2962FF" d="M46 44L18 72h28v84h28V44z"/><circle fill="#324191" cx="88" cy="148" r="8"/><path opacity=".2" fill="#FFF" d="M46 72V44h28z"/><path opacity=".1" fill="#FFF" d="M46 72h28V44z"/><path fill="none" d="M46 72h28v28z"/><path opacity=".1" d="M46 72v28h28z"/><path opacity=".3" d="M46 128h28v-28z"/><path opacity=".2" d="M46 128v-28h28z"/><path opacity=".4" d="M46 128h28v28z"/><path opacity=".5" d="M46 128v28h28z"/><path opacity=".3" fill="#FFF" d="M46 44v28H18z"/></svg>